<?xml version="1.0" encoding="UTF-8"?>
<svg id="Layer_1" xmlns="http://www.w3.org/2000/svg" version="1.1" viewBox="60 377 960 326">
  <!-- Generator: Adobe Illustrator 29.1.0, SVG Export Plug-In . SVG Version: 2.1.0 Build 142)  -->
  <defs>
    <style>
      .st0 {
        fill: #1c54d3;
      }

      .st1 {
        fill: #1a1a23;
      }
    </style>
  </defs>
  <g>
    <path class="st0" d="M169.4,492.58l63.53,36.68c2.78,1.61,5.9,2.41,9.02,2.41s6.24-.8,9.02-2.41l63.53-36.68c5.57-3.21,9.02-9.2,9.02-15.63v-61.58c0-6.52-3.37-12.37-9.02-15.63-5.65-3.26-12.4-3.26-18.05,0l-53.33,30.79c-.73.42-1.63.42-2.36,0l-53.33-30.79c-5.65-3.26-12.4-3.26-18.05,0-5.65,3.26-9.02,9.1-9.02,15.63v61.58c0,6.43,3.46,12.42,9.02,15.63ZM249.8,444.74c.4-.19.79-.4,1.18-.62l53.33-30.79c1.03-.59,1.92-.25,2.36,0,.44.25,1.18.86,1.18,2.04v61.58c0,.84-.45,1.62-1.18,2.04l-56.87,32.83v-67.09ZM176.06,415.37c0-1.18.74-1.79,1.18-2.04.26-.15.68-.33,1.19-.33.35,0,.75.09,1.17.33l53.33,30.79c.39.22.78.43,1.18.62v67.09l-56.87-32.83c-.73-.42-1.18-1.2-1.18-2.04v-61.58Z"/>
    <path class="st0" d="M259.97,544.85c-2.78,1.61-5.04,3.91-6.6,6.61-1.56,2.7-2.42,5.81-2.42,9.02v73.36c0,6.43,3.46,12.42,9.02,15.63l53.33,30.79c5.65,3.26,12.4,3.26,18.05,0,5.65-3.26,9.02-9.1,9.02-15.63v-61.58c0-.84.45-1.62,1.18-2.04l53.33-30.79c5.65-3.26,9.02-9.11,9.02-15.63,0-6.52-3.37-12.37-9.02-15.63l-53.33-30.79c-5.57-3.21-12.48-3.21-18.05,0l-63.53,36.68ZM324.69,664.63c0,1.18-.74,1.79-1.18,2.04-.44.25-1.33.59-2.36,0l-53.33-30.79c-.73-.42-1.18-1.2-1.18-2.04v-65.67s58.1,33.54,58.1,33.54c-.03.44-.05.88-.05,1.33v61.58ZM333.71,521.75l53.33,30.79c1.03.59,1.18,1.53,1.18,2.04,0,.3-.05.75-.31,1.19-.18.31-.45.61-.87.85l-53.33,30.79c-.39.22-.76.46-1.13.71l-58.1-33.54,56.87-32.83c.73-.42,1.63-.42,2.36,0Z"/>
    <path class="st0" d="M89.02,570.21l53.33,30.79c.73.42,1.18,1.2,1.18,2.04v61.58c0,6.52,3.37,12.37,9.02,15.63,5.65,3.26,12.4,3.26,18.05,0l53.33-30.79c5.57-3.21,9.02-9.2,9.02-15.63v-73.36c0-3.21-.86-6.32-2.42-9.02-1.56-2.7-3.82-5-6.6-6.61l-63.53-36.68c-5.57-3.21-12.48-3.21-18.05,0l-53.33,30.79c-5.65,3.26-9.02,9.1-9.02,15.63,0,6.53,3.37,12.37,9.02,15.63ZM217.27,633.84c0,.84-.45,1.62-1.18,2.04l-53.33,30.79c-1.03.59-1.92.25-2.36,0-.26-.15-.62-.42-.88-.86-.18-.31-.3-.69-.3-1.18v-61.58c0-.45-.02-.89-.05-1.33l58.1-33.54v65.67ZM96.87,552.54l53.33-30.79c.73-.42,1.63-.42,2.36,0l56.87,32.83-58.1,33.54c-.37-.25-.74-.49-1.13-.71l-53.33-30.79c-1.03-.59-1.18-1.53-1.18-2.04,0-.51.15-1.45,1.18-2.04Z"/>
  </g>
  <g>
    <path class="st1" d="M487.63,614.52c-3.09-3.01-4.63-7.15-4.63-12.42v-141.14h56.53c11.44,0,21.49,2.18,30.15,6.55,8.66,4.37,15.36,10.58,20.1,18.63,4.74,8.06,7.11,17.28,7.11,27.66v47.88c0,18.82-4.78,33.08-14.34,42.79-9.56,9.71-23.6,14.57-42.12,14.57h-40.27c-5.27,0-9.45-1.5-12.53-4.52ZM539.76,599.84c11.74,0,20.63-3.24,26.65-9.71,6.02-6.47,9.03-16.11,9.03-28.91v-46.97c0-10.24-3.35-18.48-10.05-24.73-6.7-6.25-15.55-9.37-26.54-9.37h-34.4v119.69h35.31Z"/>
    <path class="st1" d="M622.41,487.49c-2.71-2.63-4.06-6.06-4.06-10.28s1.35-7.64,4.06-10.28c2.71-2.63,6.25-3.95,10.61-3.95s7.87,1.32,10.5,3.95c2.63,2.64,3.95,6.06,3.95,10.28s-1.32,7.64-3.95,10.28c-2.64,2.64-6.14,3.95-10.5,3.95s-7.9-1.32-10.61-3.95ZM622.41,506.35h21v112.69h-21v-112.69Z"/>
    <path class="st1" d="M704.96,615.99c-2.48-2.03-4.56-5.23-6.21-9.6l-38.84-100.04h22.13l32.07,88.98h.45l32.07-88.98h22.13l-44.26,112.69h-10.39c-3.61,0-6.66-1.02-9.15-3.05Z"/>
    <path class="st1" d="M783.66,610.35c-6.78-5.79-10.16-13.51-10.16-23.15v-7.45c0-9.48,3.54-17.12,10.61-22.92,7.08-5.79,16.33-8.69,27.78-8.69h14.23c4.52,0,9.33.68,14.45,2.03,5.12,1.35,9.48,3.24,13.1,5.65v-16.49c0-5.57-1.73-10.05-5.19-13.44-3.47-3.39-7.98-5.08-13.55-5.08h-18.52c-5.72,0-10.31,1.35-13.78,4.06-3.47,2.71-5.2,6.25-5.2,10.61h-20.78c0-9.78,3.65-17.69,10.95-23.71,7.3-6.02,16.9-9.03,28.79-9.03h18.52c11.89,0,21.45,3.35,28.68,10.05,7.23,6.7,10.84,15.55,10.84,26.53v77.91h-19.65v-15.13c-3.47,5.12-7.98,9.22-13.55,12.31-5.57,3.08-11.22,4.63-16.94,4.63h-13.55c-11.29,0-20.32-2.9-27.1-8.69ZM825.44,601.65c6.62,0,12.49-1.92,17.61-5.76,5.12-3.84,8.66-8.99,10.61-15.47v-6.78c-2.86-2.56-6.78-4.59-11.74-6.1-4.97-1.5-10.09-2.26-15.36-2.26h-14.45c-5.27,0-9.56,1.36-12.87,4.06-3.31,2.71-4.97,6.32-4.97,10.84v6.78c0,4.52,1.62,8.09,4.86,10.73,3.24,2.64,7.57,3.95,12.99,3.95h13.32Z"/>
    <path class="st1" d="M899.05,506.35h20.1v15.58c3.31-5.12,7.71-9.29,13.21-12.53,5.49-3.24,10.95-4.86,16.37-4.86h14.9c10.84,0,19.61,3.61,26.31,10.84,6.7,7.23,10.05,16.71,10.05,28.45v75.2h-21v-75.2c0-6.17-1.58-11.18-4.74-15.02-3.16-3.84-7.3-5.76-12.42-5.76h-14c-6.47,0-12.35,2.48-17.61,7.45-5.27,4.97-8.66,11.44-10.16,19.42v69.1h-21v-112.69Z"/>
  </g>
</svg>