<?xml version="1.0" encoding="UTF-8"?>
<svg id="Layer_1" xmlns="http://www.w3.org/2000/svg" version="1.1" viewBox="0 0 1080 1080">
  <!-- Generator: Adobe Illustrator 29.1.0, SVG Export Plug-In . SVG Version: 2.1.0 Build 142)  -->
  <defs>
    <style>
      .st0 {
        fill: #fff;
      }

      .st1 {
        fill: #1c54d3;
      }
    </style>
  </defs>
  <rect class="st0" x="0" y="0" width="1080" height="1080"/>
  <g>
    <path class="st1" d="M385.54,439.06l135.25,78.09c5.92,3.42,12.57,5.13,19.21,5.13s13.29-1.71,19.21-5.13l135.25-78.09c11.85-6.84,19.21-19.59,19.21-33.27v-131.09c0-13.89-7.18-26.32-19.21-33.27-12.03-6.95-26.39-6.95-38.42,0l-113.53,65.55c-1.55.89-3.47.89-5.02,0l-113.53-65.55c-12.03-6.94-26.39-6.94-38.42,0-12.03,6.94-19.21,19.38-19.21,33.27v131.09c0,13.68,7.36,26.43,19.21,33.27ZM556.7,337.21c.85-.41,1.69-.84,2.51-1.32l113.53-65.55c2.19-1.26,4.08-.54,5.02,0,.94.54,2.51,1.83,2.51,4.35v131.09c0,1.79-.96,3.45-2.51,4.35l-121.06,69.89v-142.82ZM399.73,274.69c0-2.52,1.57-3.81,2.51-4.35.55-.32,1.44-.7,2.53-.7.75,0,1.6.18,2.49.7l113.53,65.55c.82.48,1.66.91,2.51,1.32v142.82l-121.06-69.9c-1.55-.89-2.51-2.56-2.51-4.35v-131.09Z"/>
    <path class="st1" d="M578.36,550.32c-5.92,3.42-10.73,8.32-14.05,14.07-3.32,5.75-5.16,12.36-5.16,19.2v156.17c0,13.68,7.36,26.43,19.21,33.27l113.53,65.55c12.03,6.94,26.39,6.94,38.41,0,12.03-6.94,19.21-19.38,19.21-33.27v-131.09c0-1.79.96-3.45,2.51-4.35l113.53-65.55c12.03-6.94,19.21-19.38,19.21-33.27,0-13.89-7.18-26.33-19.21-33.27l-113.53-65.55c-11.85-6.84-26.57-6.84-38.42,0l-135.25,78.09ZM716.12,805.3c0,2.52-1.57,3.81-2.51,4.35-.94.54-2.84,1.26-5.02,0l-113.53-65.55c-1.55-.89-2.51-2.56-2.51-4.35v-139.79s123.69,71.41,123.69,71.41c-.07.94-.11,1.88-.11,2.83v131.09ZM735.33,501.15l113.53,65.55c2.18,1.26,2.51,3.26,2.51,4.35,0,.64-.11,1.6-.66,2.54-.38.65-.96,1.29-1.85,1.81l-113.53,65.55c-.82.47-1.62.98-2.4,1.51l-123.69-71.41,121.06-69.9c1.55-.89,3.47-.89,5.02,0Z"/>
    <path class="st1" d="M214.44,604.32l113.53,65.55c1.55.89,2.51,2.56,2.51,4.35v131.1c0,13.89,7.18,26.32,19.21,33.27,12.03,6.94,26.39,6.94,38.42,0l113.53-65.55c11.85-6.84,19.21-19.59,19.21-33.27v-156.17c0-6.84-1.84-13.45-5.16-19.2-3.32-5.75-8.12-10.65-14.05-14.07l-135.25-78.09c-11.85-6.84-26.57-6.84-38.42,0l-113.53,65.55c-12.03,6.94-19.21,19.38-19.21,33.27,0,13.89,7.18,26.33,19.21,33.27ZM487.45,739.76c0,1.79-.96,3.45-2.51,4.35l-113.53,65.55c-2.18,1.26-4.08.54-5.02,0-.55-.32-1.33-.9-1.87-1.84-.38-.65-.64-1.48-.64-2.51v-131.1c0-.95-.04-1.89-.11-2.83l123.69-71.41v139.79ZM231.14,566.7l113.53-65.55c1.55-.89,3.47-.89,5.02,0l121.06,69.89-123.68,71.41c-.78-.53-1.57-1.04-2.4-1.51l-113.53-65.55c-2.18-1.26-2.51-3.27-2.51-4.35,0-1.08.33-3.09,2.51-4.35Z"/>
  </g>
</svg>