<svg xmlns="http://www.w3.org/2000/svg" viewBox="0 0 200 200">
  <g fill="none" stroke="#7CC5EE" stroke-width="12" stroke-linecap="round" stroke-linejoin="round">
    <path d="M100,20 C122,34 132,52 128,72 C118,66 108,66 100,76 C92,66 82,66 72,72 C68,52 78,34 100,20 Z" />
    <path d="M100,20 C122,34 132,52 128,72 C118,66 108,66 100,76 C92,66 82,66 72,72 C68,52 78,34 100,20 Z" transform="rotate(120 100 100)" />
    <path d="M100,20 C122,34 132,52 128,72 C118,66 108,66 100,76 C92,66 82,66 72,72 C68,52 78,34 100,20 Z" transform="rotate(240 100 100)" />
  </g>
</svg>
